<svg xmlns="http://www.w3.org/2000/svg" width="82" height="321" viewBox="0 0 82 321">
  <g fill="none" fill-rule="evenodd" stroke-width="2" stroke-linecap="square">
    <path stroke="#E1E1E1" d="M1 95h63.623M1 223h63.623M1 32h79.004M1 288h79.004M1 160h79.004M1 16h18.877M1 48h18.877M1 80h18.877M1 111h18.877M1 208h18.877M1 271h18.877M1 240h18.877M1 144h18.88M1 176h18.88"/>
    <path stroke="#C7C7C7" d="M1 64h34.258"/>
    <path stroke="#E1E1E1" d="M1.7 128h33.558"/>
    <path stroke="#C7C7C7" d="M1 128h34.258M1 191h34.258M1 256h34.258"/>
    <path stroke="#E1E1E1" d="M1 305h18.877"/>
    <path stroke="#C7C7C7" d="M1 320h34.258"/>
  </g>
</svg>
